<svg width="150" height="150" viewBox="0 0 150 150" fill="none" xmlns="http://www.w3.org/2000/svg">
<path fill-rule="evenodd" clip-rule="evenodd" d="M106.808 58.6417C107.947 59.1593 108.645 60.3287 108.56 61.5764L106.624 90.0286C106.512 91.6817 105.081 92.9305 103.428 92.8181C101.774 92.7056 100.526 91.2744 100.638 89.6214L102.031 69.1516L63.494 107.688C62.3224 108.86 60.4229 108.86 59.2513 107.688C58.0798 106.517 58.0798 104.617 59.2513 103.446L103.446 59.2515C104.33 58.3672 105.67 58.1242 106.808 58.6417ZM90.0105 41.5738C91.1821 42.7454 91.1821 44.6449 90.0105 45.8164L45.8163 90.0106C44.932 90.8949 43.5919 91.1379 42.4535 90.6203C41.315 90.1028 40.617 88.9333 40.7019 87.6857L42.6376 59.2334C42.7501 57.5804 44.1813 56.3315 45.8343 56.444C47.4874 56.5565 48.7362 57.9877 48.6238 59.6407L47.2311 80.1105L85.7678 41.5738C86.9394 40.4022 88.8389 40.4022 90.0105 41.5738Z" fill="#FFF500"/>
<path fill-rule="evenodd" clip-rule="evenodd" d="M116.701 32.5549C109.328 25.1594 100.13 19.8452 90.041 17.1514C88.4402 16.724 87.489 15.0799 87.9164 13.4791C88.3438 11.8783 89.9879 10.9271 91.5887 11.3545C102.7 14.3211 112.828 20.1731 120.948 28.3172C146.526 53.8973 146.526 95.3671 120.946 120.947C95.3664 146.527 53.8955 146.527 28.3154 120.947C2.73542 95.3665 2.73543 53.8956 28.3154 28.3155C36.7458 19.8852 46.9194 14.2225 57.674 11.3543C59.2749 10.9273 60.9188 11.879 61.3457 13.4799C61.7727 15.0808 60.821 16.7247 59.2201 17.1516C49.4597 19.7547 40.2233 24.893 32.5581 32.5582C9.32121 55.7951 9.32121 93.467 32.5581 116.704C55.7949 139.941 93.4669 139.941 116.704 116.704C139.941 93.467 139.941 55.7951 116.704 32.5582L116.701 32.5549Z" fill="#FFF500"/>

</svg>
